<?xml version="1.0" encoding="utf-8"?>
<!-- Generator: Adobe Illustrator 16.0.0, SVG Export Plug-In . SVG Version: 6.00 Build 0)  -->
<!DOCTYPE svg PUBLIC "-//W3C//DTD SVG 1.1//EN" "http://www.w3.org/Graphics/SVG/1.1/DTD/svg11.dtd">
<svg version="1.1" id="Layer_1" xmlns="http://www.w3.org/2000/svg" xmlns:xlink="http://www.w3.org/1999/xlink" x="0px" y="0px"
	 width="64px" height="64px" viewBox="0 0 64 64" enable-background="new 0 0 64 64" xml:space="preserve">
<g id="meegotouch-speechbubble-incoming-background">
	<g>
		
			<linearGradient id="SVGID_1_" gradientUnits="userSpaceOnUse" x1="32.3511" y1="2.5005" x2="32.3511" y2="65.5005" gradientTransform="matrix(1 0 0 -1 0 66)">
			<stop  offset="0" style="stop-color:#D2D2D2"/>
			<stop  offset="1" style="stop-color:#F2F2F2"/>
		</linearGradient>
		<path fill="url(#SVGID_1_)" d="M18,63.5c-5.238,0-9.5-4.262-9.5-9.5V7.845L1.202,0.5H54c5.238,0,9.5,4.262,9.5,9.5v44
			c0,5.238-4.262,9.5-9.5,9.5H18z"/>
		<g>
			<path fill="#666666" d="M54,1c4.962,0,9,4.038,9,9v44c0,4.962-4.038,9-9,9H18c-4.962,0-9-4.038-9-9V8.051V7.639L8.709,7.346
				L2.403,1H54 M54,0H0l8,8.051V54c0,5.5,4.5,10,10,10h36c5.5,0,10-4.5,10-10V10C64,4.5,59.5,0,54,0L54,0z"/>
		</g>
	</g>
</g>
</svg>
